<?xml version="1.0" encoding="iso-8859-1"?>
<!-- Generator: Adobe Illustrator 19.0.0, SVG Export Plug-In . SVG Version: 6.00 Build 0)  -->
<svg xmlns="http://www.w3.org/2000/svg" xmlns:xlink="http://www.w3.org/1999/xlink" version="1.1" id="Capa_1" x="0px" y="0px" viewBox="0 0 512.004 512.004" style="enable-background:new 0 0 512.004 512.004;" xml:space="preserve" width="512px" height="512px">
<g>
	<g>
		<g>
			<path d="M347.432,374.859H18.289C8.195,374.87,0.015,383.05,0.004,393.145v18.286c0.012,10.094,8.192,18.274,18.286,18.286     h329.143c10.094-0.012,18.274-8.192,18.286-18.286v-18.286C365.706,383.05,357.526,374.87,347.432,374.859z" fill="#fcb417"/>
			<path d="M354.651,448.002H11.07c-6.209,0.108-11.159,5.22-11.067,11.429v20.571c-0.177,17.464,13.813,31.778,31.277,32h303.161     c17.464-0.222,31.453-14.536,31.277-32V459.43C365.81,453.221,360.859,448.109,354.651,448.002z" fill="#fcb417"/>
			<rect x="310.861" y="0.002" width="18.286" height="45.714" fill="#fcb417"/>
			<path d="M182.861,219.43C82.035,219.43,0.004,266.457,0.004,324.27c-0.259,17.547,13.73,31.996,31.277,32.304h303.161     c17.547-0.308,31.536-14.756,31.277-32.304C365.718,266.457,283.687,219.43,182.861,219.43z M79.61,289.894     c-1.714,1.715-4.04,2.679-6.464,2.679s-4.75-0.964-6.464-2.679l-9.143-9.143c-3.532-3.577-3.513-9.334,0.041-12.888     s9.311-3.572,12.888-0.04l9.143,9.143c1.715,1.714,2.678,4.039,2.678,6.464S81.325,288.18,79.61,289.894z M116.182,308.18     l-9.143,9.143c-3.579,3.515-9.322,3.489-12.87-0.058c-3.547-3.547-3.573-9.29-0.058-12.87l9.143-9.143     c3.579-3.515,9.322-3.489,12.87,0.058C119.671,298.858,119.697,304.601,116.182,308.18z M125.325,271.609     c-1.714,1.715-4.04,2.679-6.464,2.679s-4.75-0.964-6.464-2.679l-9.143-9.143c-3.532-3.577-3.513-9.334,0.041-12.888     c3.554-3.554,9.311-3.572,12.888-0.04l9.143,9.143c1.715,1.714,2.678,4.039,2.678,6.464S127.039,269.894,125.325,271.609z      M171.039,308.18l-9.143,9.143c-3.579,3.515-9.322,3.489-12.87-0.058c-3.547-3.547-3.573-9.29-0.058-12.87l9.143-9.143     c3.579-3.515,9.322-3.489,12.87,0.058C174.528,298.858,174.554,304.601,171.039,308.18z M171.039,262.466     c-1.714,1.715-4.04,2.679-6.464,2.679s-4.75-0.964-6.464-2.679l-9.143-9.143c-3.532-3.577-3.513-9.334,0.041-12.888     c3.554-3.554,9.311-3.572,12.888-0.04l9.143,9.143c1.715,1.714,2.678,4.039,2.678,6.464S172.754,260.752,171.039,262.466z      M225.896,308.18l-9.143,9.143c-3.579,3.515-9.323,3.489-12.87-0.058c-3.547-3.547-3.573-9.29-0.058-12.87l9.143-9.143     c3.579-3.515,9.322-3.489,12.87,0.058C229.385,298.858,229.411,304.601,225.896,308.18z M225.896,262.466     c-1.714,1.715-4.039,2.679-6.464,2.679c-2.425,0-4.75-0.964-6.464-2.679l-9.143-9.143c-3.532-3.577-3.513-9.334,0.041-12.888     c3.554-3.554,9.311-3.572,12.888-0.04l9.143,9.143c1.715,1.714,2.678,4.039,2.678,6.464S227.611,260.752,225.896,262.466z      M258.682,271.609l-9.143-9.143c-3.532-3.577-3.513-9.334,0.041-12.888c3.554-3.554,9.311-3.572,12.888-0.04l9.143,9.143     c2.344,2.302,3.273,5.686,2.432,8.862c-0.841,3.176-3.322,5.657-6.498,6.498C264.368,274.881,260.985,273.953,258.682,271.609z      M289.896,308.18l-9.143,9.143c-3.579,3.515-9.323,3.489-12.87-0.058c-3.547-3.547-3.573-9.29-0.058-12.87l9.143-9.143     c3.579-3.515,9.322-3.489,12.87,0.058C293.385,298.858,293.411,304.601,289.896,308.18z" fill="#fcb417"/>
			<path d="M436.25,109.716h-41.794c1.617,23.141-2.876,77.585-68.437,128.171c35.825,22.243,57.984,52.753,57.984,86.383     c0.024,14.541-6.174,28.397-17.03,38.071c10.58,6.671,17.007,18.296,17.03,30.804v18.286     c-0.004,9.531-3.746,18.681-10.422,25.483c6.596,5.623,10.403,13.849,10.422,22.517v20.571c0.02,11.658-3.994,22.965-11.362,32     h41.362c4.528,0.022,8.382-3.289,9.045-7.768l14.313-94.067C392.341,312.133,425.554,153.915,436.25,109.716z" fill="#fcb417"/>
			<path d="M308.421,228.183c66.46-47.929,69.161-100.031,67.671-118.467h-219.16l13.987,91.664     c3.954-0.142,7.93-0.236,11.942-0.236C226.215,200.601,269.133,209.843,308.421,228.183z" fill="#fcb417"/>
			<path d="M443.135,372.216l39.94-262.5h-27.958C447.431,141.026,417.263,276.16,443.135,372.216z" fill="#fcb417"/>
			<path d="M502.861,64.002H137.146c-5.047,0.005-9.138,4.095-9.143,9.143v9.143c0.005,5.047,4.096,9.138,9.143,9.143h365.714     c5.048-0.003,9.139-4.095,9.143-9.143v-9.143C512,68.097,507.909,64.005,502.861,64.002z" fill="#fcb417"/>
		</g>
	</g>
</g>
<g>
</g>
<g>
</g>
<g>
</g>
<g>
</g>
<g>
</g>
<g>
</g>
<g>
</g>
<g>
</g>
<g>
</g>
<g>
</g>
<g>
</g>
<g>
</g>
<g>
</g>
<g>
</g>
<g>
</g>
</svg>
